<?xml version="1.0" encoding="UTF-8"?>
<svg version="1.1" xmlns="http://www.w3.org/2000/svg" width="512" height="512">
<path d="M0 0 C2.50886101 2.21602865 4.93731824 4.49390725 7.3515625 6.8125 C8.25777344 7.65554687 9.16398438 8.49859375 10.09765625 9.3671875 C16.97716336 15.95090443 22.25821859 22.78106018 27.3515625 30.8125 C28.29322266 32.28009766 28.29322266 32.28009766 29.25390625 33.77734375 C46.10005053 61.23987655 51.36455268 97.43012082 44.32836914 128.83520508 C35.98828712 161.69186309 16.45058463 190.90540946 -12.6484375 208.8125 C-13.55078125 209.410625 -14.453125 210.00875 -15.3828125 210.625 C-42.35348642 227.69118915 -77.57347657 232.41053788 -108.6484375 226.1875 C-132.73806232 220.757563 -153.88246435 208.82183034 -171.6484375 191.8125 C-172.76798828 190.78769531 -172.76798828 190.78769531 -173.91015625 189.7421875 C-180.53080708 183.47972196 -185.62807086 176.36901738 -190.6484375 168.8125 C-191.2775 167.87921875 -191.9065625 166.9459375 -192.5546875 165.984375 C-209.8095122 138.53351753 -214.65932205 102.11457806 -207.5534668 70.64160156 C-199.10507566 37.38421884 -179.2041093 8.01551033 -149.63964844 -10.01318359 C-138.21699833 -16.74969009 -126.40120754 -21.57607017 -113.6484375 -25.1875 C-112.47023438 -25.52910156 -111.29203125 -25.87070312 -110.078125 -26.22265625 C-72.11908732 -35.19100032 -29.84691501 -24.65231918 0 0 Z M-138.6484375 36.8125 C-139.41027344 37.47894531 -140.17210937 38.14539063 -140.95703125 38.83203125 C-155.23015301 52.16515539 -165.79679311 73.2246791 -166.6484375 92.8125 C-166.7 93.8128125 -166.7515625 94.813125 -166.8046875 95.84375 C-167.41856559 118.55723925 -159.67872445 139.72631428 -144.6484375 156.8125 C-143.64876953 157.95525391 -143.64876953 157.95525391 -142.62890625 159.12109375 C-129.29578211 173.39421551 -108.2362584 183.96085561 -88.6484375 184.8125 C-87.648125 184.8640625 -86.6478125 184.915625 -85.6171875 184.96875 C-62.90369825 185.58262809 -41.73462322 177.84278695 -24.6484375 162.8125 C-23.88660156 162.14605469 -23.12476563 161.47960937 -22.33984375 160.79296875 C-6.74396059 146.22419747 2.20706055 124.75036709 3.5546875 103.62890625 C3.88213998 80.89824644 -3.56063578 59.96406758 -18.6484375 42.8125 C-19.31488281 42.05066406 -19.98132813 41.28882812 -20.66796875 40.50390625 C-35.23674003 24.90802309 -56.71057041 15.95700195 -77.83203125 14.609375 C-100.56269106 14.28192252 -121.49686992 21.72469828 -138.6484375 36.8125 Z " fill="#000000" transform="translate(337.6484375,28.1875)"/>
<path d="M0 0 C3.05680593 2.75290731 6.05781462 5.56064016 9.05078125 8.3828125 C9.83453125 9.11242187 10.61828125 9.84203125 11.42578125 10.59375 C44.67223988 42.53409776 64.2556523 90.2222014 65.54370117 135.96484375 C65.5666626 137.15464844 65.58962402 138.34445312 65.61328125 139.5703125 C65.65235596 140.7046875 65.69143066 141.8390625 65.73168945 143.0078125 C65.75616799 150.68610217 64.2698294 155.64821454 59.05078125 161.3828125 C52.46340521 167.07933004 45.38380889 166.94793768 37.05078125 166.3828125 C31.0819724 164.35768093 27.00666922 160.4285068 23.96484375 154.9453125 C21.38844779 149.64858447 21.30867786 144.37254151 21.05078125 138.5703125 C18.9661999 105.71414027 7.65148273 74.55625358 -13.94921875 49.3828125 C-14.64789063 48.56167969 -15.3465625 47.74054688 -16.06640625 46.89453125 C-39.06333149 20.58310255 -70.42351577 3.6570092 -104.94921875 -1.6171875 C-106.13128906 -1.80023438 -107.31335938 -1.98328125 -108.53125 -2.171875 C-125.12175032 -4.16059151 -142.69117856 -3.49625901 -158.94921875 0.3828125 C-159.68785156 0.55441895 -160.42648438 0.72602539 -161.1875 0.90283203 C-199.28806879 9.98173673 -232.55650341 33.88286313 -253.11376953 67.27441406 C-264.92875259 86.84739878 -272.89269864 108.68077431 -274.40234375 131.609375 C-274.47501465 132.70604492 -274.54768555 133.80271484 -274.62255859 134.93261719 C-274.75376744 137.09613358 -274.86456334 139.26101705 -274.95166016 141.42675781 C-275.39408887 149.09795975 -276.94237208 156.55804491 -282.71679688 162.07006836 C-289.43117274 167.04142473 -295.87895569 167.04258519 -303.94921875 166.3828125 C-310.02081086 164.84532869 -313.29184468 161.29423454 -316.8203125 156.28515625 C-325.78625175 141.17646277 -317.5560393 111.98165566 -313.6640625 95.953125 C-307.10459312 70.58141581 -295.2271506 46.88116186 -278.94921875 26.3828125 C-278.50465332 25.82255371 -278.06008789 25.26229492 -277.60205078 24.68505859 C-266.84798723 11.28275287 -254.84728448 -0.50254786 -240.94921875 -10.6171875 C-240.3857373 -11.03033203 -239.82225586 -11.44347656 -239.24169922 -11.86914062 C-167.64294336 -63.69456643 -66.00058423 -58.57005488 0 0 Z " fill="#000000" transform="translate(382.94921875,345.6171875)"/>
</svg>
